REM DIRINDEX 1\2\6,1\2\7,1\2\8,1\2\9,1\3\10,1\3\11,1\4\12,1\4\13,1\4\14,1\5\15,1\5\16,1\5\17
REM DIRNAME cjc020,folder01,folder02,folder03,folder04,folder05,folder06,folder07,folder08,folder09,folder10,folder11,folder12,folder13,folder14,folder15,folder16
TITLE ""
FILE "1900_2_sec16_1519_1537.mp3" MP3
  TRACK 01 AUDIO
    TITLE "0:"
    INDEX 01 00:00:00
  TRACK 02 AUDIO
    TITLE "13:cjc020_5187"
    INDEX 01 00:00:17
  TRACK 03 AUDIO
    TITLE "0:"
    INDEX 01 00:01:19
  TRACK 04 AUDIO
    TITLE "14:cjc020_5188"
    INDEX 01 00:01:24
  TRACK 05 AUDIO
    TITLE "0:"
    INDEX 01 00:03:45
  TRACK 06 AUDIO
    TITLE "13:cjc020_5189"
    INDEX 01 00:04:23
  TRACK 07 AUDIO
    TITLE "0:"
    INDEX 01 00:05:26
  TRACK 08 AUDIO
    TITLE "14:cjc020_5190"
    INDEX 01 00:05:28
  TRACK 09 AUDIO
    TITLE "0:"
    INDEX 01 00:07:43
  TRACK 10 AUDIO
    TITLE "13:cjc020_5191"
    INDEX 01 00:08:21
  TRACK 11 AUDIO
    TITLE "0:"
    INDEX 01 00:09:40
  TRACK 12 AUDIO
    TITLE "14:cjc020_5192"
    INDEX 01 00:09:45
  TRACK 13 AUDIO
    TITLE "0:"
    INDEX 01 00:10:72
  TRACK 14 AUDIO
    TITLE "13:cjc020_5193"
    INDEX 01 00:11:50
  TRACK 15 AUDIO
    TITLE "0:"
    INDEX 01 00:13:02
  TRACK 16 AUDIO
    TITLE "14:cjc020_5194"
    INDEX 01 00:13:08
  TRACK 17 AUDIO
    TITLE "0:"
    INDEX 01 00:15:32
  TRACK 18 AUDIO
    TITLE "13:cjc020_5195"
    INDEX 01 00:16:10
  TRACK 19 AUDIO
    TITLE "0:"
    INDEX 01 00:17:29
  TRACK 20 AUDIO
    TITLE "14:cjc020_5196"
    INDEX 01 00:17:33
  TRACK 21 AUDIO
    TITLE "0:"
    INDEX 01 00:20:06
  TRACK 22 AUDIO
    TITLE "13:cjc020_5197"
    INDEX 01 00:20:57
  TRACK 23 AUDIO
    TITLE "0:"
    INDEX 01 00:22:07
  TRACK 24 AUDIO
    TITLE "14:cjc020_5198"
    INDEX 01 00:22:11
  TRACK 25 AUDIO
    TITLE "0:"
    INDEX 01 00:23:36
  TRACK 26 AUDIO
    TITLE "13:cjc020_5199"
    INDEX 01 00:24:18
  TRACK 27 AUDIO
    TITLE "0:"
    INDEX 01 00:25:25
  TRACK 28 AUDIO
    TITLE "14:cjc020_5200"
    INDEX 01 00:25:27
  TRACK 29 AUDIO
    TITLE "0:"
    INDEX 01 00:28:57
  TRACK 30 AUDIO
    TITLE "13:cjc020_5201"
    INDEX 01 00:29:40
  TRACK 31 AUDIO
    TITLE "0:"
    INDEX 01 00:30:40
  TRACK 32 AUDIO
    TITLE "14:cjc020_5202"
    INDEX 01 00:30:46
  TRACK 33 AUDIO
    TITLE "0:"
    INDEX 01 00:32:72
  TRACK 34 AUDIO
    TITLE "13:cjc020_5203"
    INDEX 01 00:33:52
  TRACK 35 AUDIO
    TITLE "0:"
    INDEX 01 00:34:49
  TRACK 36 AUDIO
    TITLE "14:cjc020_5204"
    INDEX 01 00:34:51
  TRACK 37 AUDIO
    TITLE "0:"
    INDEX 01 00:36:36
  TRACK 38 AUDIO
    TITLE "13:cjc020_5205"
    INDEX 01 00:37:20
  TRACK 39 AUDIO
    TITLE "0:"
    INDEX 01 00:38:12
  TRACK 40 AUDIO
    TITLE "14:cjc020_5206"
    INDEX 01 00:38:18
  TRACK 41 AUDIO
    TITLE "0:"
    INDEX 01 00:40:73
  TRACK 42 AUDIO
    TITLE "13:cjc020_5207"
    INDEX 01 00:41:51
  TRACK 43 AUDIO
    TITLE "0:"
    INDEX 01 00:42:63
  TRACK 44 AUDIO
    TITLE "14:cjc020_5208"
    INDEX 01 00:42:66
  TRACK 45 AUDIO
    TITLE "0:"
    INDEX 01 00:46:31
  TRACK 46 AUDIO
    TITLE "13:cjc020_5209"
    INDEX 01 00:47:13
  TRACK 47 AUDIO
    TITLE "0:"
    INDEX 01 00:48:34
  TRACK 48 AUDIO
    TITLE "14:cjc020_5210"
    INDEX 01 00:48:36
  TRACK 49 AUDIO
    TITLE "0:"
    INDEX 01 00:49:63
  TRACK 50 AUDIO
    TITLE "13:cjc020_5211"
    INDEX 01 00:50:44
  TRACK 51 AUDIO
    TITLE "0:"
    INDEX 01 00:51:63
  TRACK 52 AUDIO
    TITLE "14:cjc020_5212"
    INDEX 01 00:51:65
  TRACK 53 AUDIO
    TITLE "0:"
    INDEX 01 00:54:72
  TRACK 54 AUDIO
    TITLE "13:cjc020_5213"
    INDEX 01 00:55:53
  TRACK 55 AUDIO
    TITLE "0:"
    INDEX 01 00:57:05
  TRACK 56 AUDIO
    TITLE "14:cjc020_5214"
    INDEX 01 00:57:11
  TRACK 57 AUDIO
    TITLE "0:"
    INDEX 01 00:58:07
  TRACK 58 AUDIO
    TITLE "13:cjc020_5215"
    INDEX 01 00:58:66
  TRACK 59 AUDIO
    TITLE "0:"
    INDEX 01 00:59:73
  TRACK 60 AUDIO
    TITLE "14:cjc020_5216"
    INDEX 01 01:00:04
  TRACK 61 AUDIO
    TITLE "0:"
    INDEX 01 01:01:21
  TRACK 62 AUDIO
    TITLE "13:cjc020_5217"
    INDEX 01 01:02:03
  TRACK 63 AUDIO
    TITLE "0:"
    INDEX 01 01:03:16
  TRACK 64 AUDIO
    TITLE "14:cjc020_5218"
    INDEX 01 01:03:20
  TRACK 65 AUDIO
    TITLE "0:"
    INDEX 01 01:05:69
  TRACK 66 AUDIO
    TITLE "13:cjc020_5219"
    INDEX 01 01:06:51
  TRACK 67 AUDIO
    TITLE "0:"
    INDEX 01 01:07:72
  TRACK 68 AUDIO
    TITLE "14:cjc020_5220"
    INDEX 01 01:08:03
  TRACK 69 AUDIO
    TITLE "0:"
    INDEX 01 01:09:26
  TRACK 70 AUDIO
    TITLE "12:cjc020_5221"
    INDEX 01 01:11:00
  TRACK 71 AUDIO
    TITLE "0:"
    INDEX 01 01:12:24
  TRACK 72 AUDIO
    TITLE "13:cjc020_5222"
    INDEX 01 01:13:28
  TRACK 73 AUDIO
    TITLE "0:"
    INDEX 01 01:14:37
  TRACK 74 AUDIO
    TITLE "14:cjc020_5223"
    INDEX 01 01:14:45
  TRACK 75 AUDIO
    TITLE "0:"
    INDEX 01 01:17:51
  TRACK 76 AUDIO
    TITLE "13:cjc020_5224"
    INDEX 01 01:18:35
  TRACK 77 AUDIO
    TITLE "0:"
    INDEX 01 01:19:64
  TRACK 78 AUDIO
    TITLE "14:cjc020_5225"
    INDEX 01 01:19:68
  TRACK 79 AUDIO
    TITLE "0:"
    INDEX 01 01:20:67
